<svg width="448" height="328" viewBox="0 0 448 328" fill="none" xmlns="http://www.w3.org/2000/svg">
<path d="M329.632 243.902C289.943 243.902 254.859 246.841 233.409 251.36C213.676 244.264 187.457 239.943 158.673 239.943C97.3206 239.943 47.584 259.589 47.584 283.829C47.584 308.068 97.3206 327.714 158.673 327.714C220.025 327.714 269.762 308.068 269.762 283.829C269.762 281.476 269.276 279.173 268.38 276.919C286.245 278.55 307.21 279.496 329.632 279.496C394.956 279.496 447.892 271.528 447.892 261.706C447.905 251.858 394.956 243.902 329.632 243.902Z" fill="#EDEEF2"/>
<path d="M254.286 259.738C250.65 259.738 247.276 256.178 246.766 251.808L232.399 130.174C231.876 125.804 235.001 122.256 239.358 122.256H419.929C424.274 122.256 427.399 125.804 426.888 130.174L412.521 251.808C411.999 256.178 408.625 259.738 405.002 259.738H254.286Z" fill="#F6F6F6"/>
<path d="M419.63 124.995C422.469 124.995 424.511 127.323 424.187 130.187L410.218 251.821C409.895 254.684 407.679 257.012 405.288 257.012H253.987C251.596 257.012 249.393 254.684 249.057 251.821L235.088 130.187C234.764 127.323 236.806 124.995 239.645 124.995H419.63ZM420.215 119.53H239.06C233.183 119.53 228.988 124.31 229.697 130.187L244.463 251.821C245.172 257.697 249.717 262.477 254.584 262.477H404.691C409.558 262.477 414.09 257.697 414.812 251.821L429.578 130.187C430.287 124.31 426.092 119.53 420.215 119.53Z" fill="#3C4242"/>
<path d="M419.63 124.995H393.485L386.09 220.87C385.866 223.734 383.662 226.062 381.172 226.062H246.105L249.069 251.808C249.405 254.671 251.608 257 253.999 257H405.288C407.678 257 409.882 254.671 410.218 251.808L424.186 130.174C424.51 127.311 422.468 124.995 419.63 124.995Z" fill="#EDEEF2"/>
<path d="M419.63 124.995H409.857L399.175 235.337C398.901 238.2 396.685 240.529 394.233 240.529H247.762L249.057 251.821C249.393 254.684 251.596 257.012 253.987 257.012H405.276C407.666 257.012 409.87 254.684 410.206 251.821L424.174 130.187C424.51 127.311 422.469 124.995 419.63 124.995Z" fill="#883D1A"/>
<path d="M245.994 155.472L252.207 214.733" stroke="white" stroke-width="5.46568" stroke-miterlimit="10" stroke-linecap="round" stroke-linejoin="round"/>
<path d="M278.96 241.076C279.072 242.633 278.089 243.902 276.757 243.902H270.358C269.038 243.902 267.843 242.633 267.706 241.076L261.406 168.582C261.269 167.013 262.352 165.756 263.834 165.756H270.93C272.412 165.756 273.682 167.013 273.794 168.582L278.96 241.076Z" fill="#BEBCBD" stroke="#3C4242" stroke-width="5.46568" stroke-miterlimit="10" stroke-linecap="round" stroke-linejoin="round"/>
<path d="M307.108 241.076C307.158 242.633 306.125 243.902 304.793 243.902H298.393C297.061 243.902 295.928 242.633 295.854 241.076L292.418 168.582C292.343 167.013 293.476 165.756 294.945 165.756H302.041C303.51 165.756 304.755 167.013 304.805 168.582L307.108 241.076Z" fill="#BEBCBD" stroke="#3C4242" stroke-width="5.46568" stroke-miterlimit="10" stroke-linecap="round" stroke-linejoin="round"/>
<path d="M335.258 241.076C335.246 242.633 334.163 243.902 332.831 243.902H326.444C325.112 243.902 324.029 242.633 324.016 241.076L323.443 168.582C323.431 167.013 324.614 165.756 326.083 165.756H333.179C334.661 165.756 335.843 167.013 335.831 168.582L335.258 241.076Z" fill="#BEBCBD" stroke="#3C4242" stroke-width="5.46568" stroke-miterlimit="10" stroke-linecap="round" stroke-linejoin="round"/>
<path d="M363.407 241.076C363.332 242.633 362.199 243.902 360.867 243.902H354.468C353.136 243.902 352.102 242.633 352.152 241.076L354.443 168.582C354.493 167.013 355.725 165.756 357.207 165.756H364.303C365.772 165.756 366.917 167.013 366.843 168.582L363.407 241.076Z" fill="#BEBCBD" stroke="#3C4242" stroke-width="5.46568" stroke-miterlimit="10" stroke-linecap="round" stroke-linejoin="round"/>
<path d="M391.556 241.076C391.419 242.633 390.237 243.902 388.904 243.902H382.505C381.173 243.902 380.19 242.633 380.302 241.076L385.456 168.582C385.568 167.013 386.85 165.756 388.319 165.756H395.416C396.885 165.756 397.98 167.013 397.843 168.582L391.556 241.076Z" fill="#BEBCBD" stroke="#3C4242" stroke-width="5.46568" stroke-miterlimit="10" stroke-linecap="round" stroke-linejoin="round"/>
<path d="M265.927 128.929C265.13 130.162 263.487 130.523 262.266 129.726L256.328 125.904C255.095 125.107 254.734 123.464 255.531 122.244L292.357 64.9626C293.154 63.7301 294.798 63.3815 296.03 64.1659L301.969 67.9755C303.201 68.7722 303.562 70.4156 302.765 71.6481L265.927 128.929Z" fill="#BEBCBD" stroke="#3C4242" stroke-width="5.46568" stroke-miterlimit="10" stroke-linecap="round" stroke-linejoin="round"/>
<path d="M393.337 128.929C394.134 130.162 395.777 130.523 397.01 129.726L402.948 125.904C404.181 125.107 404.529 123.464 403.745 122.244L366.919 64.9626C366.122 63.7301 364.479 63.3815 363.259 64.1659L357.32 67.9755C356.088 68.7722 355.727 70.4156 356.523 71.6481L393.337 128.929Z" fill="#BEBCBD" stroke="#3C4242" stroke-width="5.46568" stroke-miterlimit="10" stroke-linecap="round" stroke-linejoin="round"/>
<path d="M227.16 148.525C222.964 148.525 219.553 145.114 219.553 140.918V126.078C219.553 121.883 222.964 118.472 227.16 118.472H432.107C436.302 118.472 439.714 121.883 439.714 126.078V140.918C439.714 145.114 436.302 148.525 432.107 148.525H227.16Z" fill="#F6F6F6"/>
<path d="M432.118 121.198C434.82 121.198 436.998 123.377 436.998 126.078V140.918C436.998 143.608 434.82 145.799 432.118 145.799H227.158C224.469 145.799 222.278 143.62 222.278 140.918V126.078C222.278 123.389 224.469 121.198 227.158 121.198H432.118ZM432.118 115.733H227.158C221.456 115.733 216.812 120.376 216.812 126.078V140.918C216.812 146.62 221.456 151.264 227.158 151.264H432.106C437.807 151.264 442.451 146.62 442.451 140.918V126.078C442.464 120.376 437.82 115.733 432.118 115.733Z" fill="#3C4242"/>
<path d="M432.117 121.198H422.357V128.618C422.357 131.32 420.178 133.498 417.477 133.498H222.277V140.918C222.277 143.608 224.468 145.799 227.158 145.799H432.105C434.807 145.799 436.985 143.62 436.985 140.918V126.078C436.998 123.389 434.807 121.198 432.117 121.198Z" fill="#883D1A"/>
<path d="M69.7069 186.858C69.2836 186.858 68.8478 186.758 68.4619 186.559L42.3797 173.25C41.4211 172.765 40.836 171.744 40.8858 170.673C40.948 169.59 41.6327 168.656 42.6287 168.27L131.594 134.071C131.906 133.947 132.242 133.884 132.578 133.884C132.877 133.884 133.188 133.934 133.474 134.034L155.747 141.765C156.842 142.151 157.589 143.184 157.589 144.342V151.389C157.589 152.522 156.892 153.53 155.834 153.941L70.6779 186.684C70.3667 186.796 70.043 186.858 69.7069 186.858Z" fill="#EDEEF2"/>
<path d="M132.59 136.623L154.863 144.355V151.401L69.7067 184.144L43.6245 170.823L132.59 136.623ZM132.59 131.158C131.918 131.158 131.258 131.282 130.623 131.519L41.6699 165.718C39.653 166.49 38.2836 168.382 38.1715 170.536C38.0595 172.69 39.2173 174.707 41.147 175.69L67.2292 188.999C68.001 189.398 68.8601 189.597 69.7191 189.597C70.3789 189.597 71.0512 189.472 71.6862 189.236L156.842 156.493C158.959 155.684 160.341 153.654 160.341 151.389V144.342C160.341 142.014 158.872 139.935 156.668 139.175L134.395 131.444C133.81 131.257 133.2 131.158 132.59 131.158Z" fill="#3C4242"/>
<path d="M85.095 178.205L68.0016 170.026L145.987 141.255L132.591 136.623L43.625 170.823L69.7072 184.131L85.095 178.205Z" fill="#BEBCBD"/>
<path d="M247.639 186.858C247.303 186.858 246.979 186.796 246.656 186.671L161.5 153.928C160.441 153.517 159.744 152.509 159.744 151.376V144.33C159.744 143.159 160.479 142.126 161.587 141.753L183.859 134.021C184.146 133.922 184.457 133.872 184.756 133.872C185.092 133.872 185.415 133.934 185.739 134.059L274.705 168.258C275.713 168.644 276.398 169.59 276.448 170.661C276.51 171.744 275.925 172.752 274.966 173.238L248.884 186.547C248.498 186.758 248.075 186.858 247.639 186.858Z" fill="#EDEEF2"/>
<path d="M184.756 136.623L273.721 170.823L247.639 184.131L162.483 151.389V144.342L184.756 136.623ZM184.756 131.158C184.146 131.158 183.548 131.257 182.963 131.457L160.69 139.188C158.487 139.947 157.018 142.026 157.018 144.355V151.401C157.018 153.667 158.412 155.696 160.528 156.505L245.684 189.248C246.319 189.497 246.979 189.609 247.652 189.609C248.511 189.609 249.357 189.41 250.141 189.012L276.224 175.703C278.141 174.719 279.311 172.703 279.199 170.549C279.087 168.395 277.718 166.503 275.701 165.731L186.735 131.531C186.088 131.27 185.415 131.158 184.756 131.158Z" fill="#3C4242"/>
<path d="M232.251 178.205L249.357 170.026L171.359 141.255L184.755 136.623L273.721 170.823L247.639 184.131L232.251 178.205Z" fill="#BEBCBD"/>
<path d="M247.638 276.869C247.302 276.869 246.978 276.807 246.655 276.683L157.689 242.483C156.631 242.072 155.934 241.064 155.934 239.931V150.965C155.934 150.069 156.382 149.222 157.116 148.712C157.577 148.401 158.112 148.226 158.66 148.226C158.996 148.226 159.32 148.289 159.644 148.413L248.609 182.612C249.668 183.023 250.365 184.032 250.365 185.165V274.13C250.365 275.027 249.917 275.873 249.182 276.384C248.721 276.707 248.186 276.869 247.638 276.869Z" fill="#BEBCBD"/>
<path d="M158.672 150.965L247.638 185.165V274.13L158.672 239.931V150.965ZM158.672 145.5C157.577 145.5 156.506 145.824 155.572 146.459C154.091 147.479 153.207 149.16 153.207 150.965V239.931C153.207 242.197 154.601 244.226 156.705 245.035L245.671 279.235C246.306 279.484 246.966 279.596 247.638 279.596C248.734 279.596 249.804 279.272 250.738 278.637C252.22 277.616 253.104 275.936 253.104 274.13V185.165C253.104 182.899 251.709 180.87 249.593 180.06L160.627 145.861C160.005 145.624 159.332 145.5 158.672 145.5Z" fill="#3C4242"/>
<path d="M227.108 177.272L158.672 206.466V239.931L247.638 274.143V185.165L227.108 177.272Z" fill="#883D1A"/>
<path d="M158.672 312.351C158.124 312.351 157.589 312.189 157.128 311.865C156.381 311.355 155.945 310.508 155.945 309.612V220.646C155.945 219.513 156.643 218.505 157.701 218.094L246.666 183.895C246.978 183.77 247.314 183.708 247.65 183.708C248.198 183.708 248.733 183.87 249.194 184.194C249.941 184.704 250.376 185.551 250.376 186.447V275.413C250.376 276.546 249.679 277.554 248.621 277.965L159.655 312.164C159.332 312.289 159.008 312.351 158.672 312.351Z" fill="#EDEEF2"/>
<path d="M247.638 186.447V275.413L158.672 309.612V220.646L247.638 186.447ZM247.638 180.982C246.978 180.982 246.306 181.106 245.671 181.343L156.705 215.542C154.589 216.351 153.207 218.381 153.207 220.646V309.612C153.207 311.417 154.091 313.098 155.572 314.119C156.494 314.754 157.577 315.078 158.672 315.078C159.332 315.078 160.005 314.953 160.64 314.716L249.605 280.517C251.722 279.708 253.116 277.679 253.116 275.413V186.447C253.116 184.642 252.232 182.961 250.751 181.94C249.804 181.305 248.734 180.982 247.638 180.982Z" fill="#3C4242"/>
<path d="M232.25 192.373V262.589L158.672 290.875V309.625L247.638 275.413V186.447L232.25 192.373Z" fill="#BEBCBD"/>
<path d="M69.707 276.869C69.1592 276.869 68.6238 276.707 68.1632 276.384C67.4162 275.873 66.9805 275.027 66.9805 274.13V185.165C66.9805 184.032 67.6777 183.023 68.7359 182.612L157.702 148.413C158.013 148.289 158.349 148.226 158.685 148.226C159.233 148.226 159.768 148.388 160.229 148.712C160.976 149.222 161.412 150.069 161.412 150.965V239.931C161.412 241.064 160.714 242.072 159.656 242.483L70.6905 276.683C70.3668 276.807 70.0431 276.869 69.707 276.869Z" fill="#EDEEF2"/>
<path d="M158.672 150.965V239.931L69.7064 274.13V185.165L158.672 150.965ZM158.672 145.5C158.012 145.5 157.352 145.624 156.705 145.861L67.7393 180.06C65.6229 180.87 64.2285 182.899 64.2285 185.165V274.13C64.2285 275.936 65.1124 277.616 66.594 278.637C67.5152 279.272 68.5984 279.596 69.6939 279.596C70.3538 279.596 71.0261 279.471 71.661 279.235L160.627 245.035C162.743 244.226 164.125 242.197 164.125 239.931V150.965C164.125 149.16 163.241 147.479 161.76 146.459C160.851 145.824 159.768 145.5 158.672 145.5Z" fill="#3C4242"/>
<path d="M146.061 155.821V230.631L69.707 259.987V274.143L158.673 239.931V150.965L146.061 155.821Z" fill="#BEBCBD"/>
<path d="M158.673 312.351C158.337 312.351 158.014 312.289 157.69 312.164L68.7242 277.965C67.6659 277.554 66.9688 276.546 66.9688 275.413V186.447C66.9688 185.551 67.4169 184.704 68.1515 184.194C68.6121 183.882 69.1475 183.708 69.6952 183.708C70.0314 183.708 70.3551 183.77 70.6788 183.895L159.644 218.094C160.703 218.505 161.4 219.513 161.4 220.646V309.612C161.4 310.508 160.952 311.355 160.217 311.865C159.757 312.189 159.221 312.351 158.673 312.351Z" fill="#883D1A"/>
<path d="M69.7076 186.447L158.673 220.646V309.612L69.7076 275.413V186.447ZM69.7076 180.982C68.612 180.982 67.5414 181.305 66.6076 181.94C65.1261 182.961 64.2422 184.642 64.2422 186.447V275.413C64.2422 277.679 65.6366 279.708 67.753 280.517L156.719 314.716C157.354 314.965 158.013 315.078 158.686 315.078C159.781 315.078 160.852 314.754 161.786 314.119C163.267 313.098 164.151 311.417 164.151 309.612V220.646C164.151 218.381 162.757 216.351 160.653 215.542L71.6871 181.343C71.0397 181.106 70.3674 180.982 69.7076 180.982Z" fill="#3C4242"/>
<path d="M144.567 215.231V288.672L69.707 259.888V275.413L158.673 309.625V220.646L144.567 215.231Z" fill="#BEBCBD"/>
<path d="M176.837 249.99C175.953 249.99 175.106 249.567 174.583 248.795L160.229 227.768C159.918 227.319 159.756 226.772 159.756 226.224V219.177C159.756 218.044 160.453 217.036 161.511 216.625L246.667 183.882C246.991 183.758 247.315 183.696 247.651 183.696C248.535 183.696 249.381 184.131 249.904 184.891L268.068 211.496C268.542 212.181 268.666 213.052 268.417 213.849C268.168 214.646 267.57 215.281 266.786 215.592L177.82 249.791C177.497 249.941 177.161 249.99 176.837 249.99Z" fill="#EDEEF2"/>
<path d="M247.638 186.447L265.802 213.052L176.836 247.251L162.482 226.224V219.177L247.638 186.447ZM247.638 180.982C246.978 180.982 246.318 181.106 245.683 181.343L160.515 214.085C158.398 214.895 157.004 216.924 157.004 219.19V226.236C157.004 227.332 157.34 228.415 157.95 229.311L172.305 250.339C173.35 251.87 175.056 252.729 176.824 252.729C177.484 252.729 178.144 252.605 178.778 252.368L267.744 218.169C269.3 217.571 270.508 216.289 271.006 214.695C271.504 213.102 271.243 211.371 270.309 209.989L252.145 183.384C251.111 181.841 249.406 180.982 247.638 180.982Z" fill="#3C4242"/>
<path d="M232.249 192.373L240.242 204.138L166.664 232.436L176.835 247.264L265.801 213.065L247.637 186.447L232.249 192.373Z" fill="#BEBCBD"/>
<path d="M140.508 249.99C140.185 249.99 139.848 249.928 139.525 249.804L50.5591 215.604C49.7747 215.305 49.1772 214.671 48.9282 213.861C48.6792 213.065 48.8037 212.193 49.2768 211.508L67.4409 184.903C67.9638 184.144 68.8104 183.708 69.6943 183.708C70.018 183.708 70.3541 183.77 70.6778 183.895L156.606 216.936C157.664 217.347 158.361 218.356 158.361 219.489V225.103C158.361 225.651 158.199 226.187 157.888 226.647L142.762 248.82C142.251 249.567 141.392 249.99 140.508 249.99Z" fill="#EDEEF2"/>
<path d="M69.7069 186.447L155.635 219.489V225.103L140.508 247.276L51.5427 213.077L69.7069 186.447ZM69.7069 180.982C67.939 180.982 66.2334 181.841 65.1876 183.372L47.0359 209.977C46.0898 211.359 45.8408 213.089 46.3388 214.683C46.8367 216.277 48.0319 217.559 49.6006 218.156L138.566 252.356C139.201 252.605 139.873 252.717 140.521 252.717C142.289 252.717 143.994 251.858 145.04 250.327L160.167 228.154C160.789 227.245 161.113 226.174 161.113 225.078V219.464C161.113 217.198 159.718 215.168 157.602 214.359L71.6739 181.318C71.0266 181.106 70.3667 180.982 69.7069 180.982Z" fill="#3C4242"/>
<path d="M85.095 192.373L77.1147 204.138L150.693 232.436L140.509 247.264L51.543 213.065L69.7071 186.447L85.095 192.373Z" fill="#BEBCBD"/>
<path d="M162.183 171.395C161.05 171.395 160.005 170.686 159.606 169.578L139.948 114.413L24.6014 122.816C24.5392 122.816 24.4645 122.829 24.4023 122.829C19.0115 122.829 14.6168 118.496 14.5172 113.118L2.73974 12.9353C2.72729 12.8357 2.71484 12.7236 2.71484 12.6116C2.71484 7.1586 7.14694 2.7265 12.5999 2.7265C12.6622 2.7265 12.712 2.7265 12.7742 2.7265L175.368 13.0473C180.771 13.0971 185.153 17.5043 185.153 22.9199V101.938C185.153 107.354 180.783 111.761 175.38 111.811L164.91 112.57V168.644C164.91 169.976 163.951 171.109 162.644 171.333C162.495 171.383 162.345 171.395 162.183 171.395Z" fill="#F6F6F6"/>
<path d="M12.6116 5.46543L175.292 15.7987C179.239 15.7987 182.438 18.9983 182.438 22.9448V101.963C182.438 105.91 179.239 109.109 175.292 109.109L162.195 110.068V168.681L141.84 111.549L24.4139 120.102C20.4673 120.102 17.2678 116.903 17.2678 112.956L5.47787 12.624C5.46542 8.665 8.66501 5.46543 12.6116 5.46543ZM12.6116 0C5.65217 0 0 5.66462 0 12.624C0 12.8357 0.0124482 13.0473 0.0373476 13.259L11.8023 113.305C12.0015 120.09 17.579 125.555 24.4139 125.555C24.5508 125.555 24.6753 125.555 24.8123 125.543L138.08 117.289L157.041 170.499C157.825 172.703 159.904 174.134 162.182 174.134C162.494 174.134 162.805 174.109 163.116 174.06C165.731 173.611 167.648 171.333 167.648 168.669V115.135L175.504 114.562C182.351 114.438 187.891 108.835 187.891 101.951V22.9324C187.891 16.0477 182.339 10.4329 175.479 10.3208L12.9602 0.0124524C12.8481 2.65983e-06 12.7361 0 12.6116 0Z" fill="#3C4242"/>
<path d="M41.5329 16.0851L21.9495 14.8401C18.4511 14.8401 15.625 17.6786 15.625 21.1645L21.3643 70.0048" stroke="#3C4242" stroke-width="5.46568" stroke-miterlimit="10" stroke-linecap="round" stroke-linejoin="round"/>
<path d="M175.292 15.7862L163.975 15.0642V85.8657C163.975 89.8123 160.775 93.0119 156.829 93.0119L147.827 93.6717L147.031 93.7339L143.719 93.9705L16.1094 103.27L17.2548 112.944C17.2548 116.89 20.4543 120.09 24.4009 120.09L141.827 111.537L143.731 116.866L162.194 168.669V110.056L175.292 109.097C179.238 109.097 182.438 105.897 182.438 101.951V22.9324C182.438 18.9858 179.238 15.7862 175.292 15.7862Z" fill="#883D1A"/>
<path d="M175.293 15.7863L172.019 15.5746V94.5058C172.019 98.4524 168.819 101.652 164.873 101.652L151.775 102.611V139.424L162.196 168.669V110.056L175.293 109.097C179.239 109.097 182.439 105.897 182.439 101.951V22.9324C182.439 18.9858 179.239 15.7863 175.293 15.7863Z" fill="#BEBCBD"/>
<circle cx="66.7218" cy="45.3097" r="5.30973" fill="#2A2F2F"/>
<circle cx="116.278" cy="45.3097" r="5.30973" fill="#2A2F2F"/>
<path d="M83.3594 75.6266C87.2532 68.075 98.7222 57.5027 113.448 75.6266" stroke="#2A2F2F" stroke-width="5" stroke-linecap="round"/>
</svg>
