<svg width="38" height="38" viewBox="0 0 38 38" fill="none" xmlns="http://www.w3.org/2000/svg">
<rect x="-0.0078125" y="0.193848" width="37.024" height="37.024" rx="10.68" fill="#F6F6F6"/>
<path d="M18.4659 14.6696C16.2549 14.6696 14.4714 16.453 14.4714 18.6641C14.4714 20.8752 16.2549 22.6587 18.4659 22.6587C20.677 22.6587 22.4605 20.8752 22.4605 18.6641C22.4605 16.453 20.677 14.6696 18.4659 14.6696ZM18.4659 21.2611C17.0371 21.2611 15.869 20.0965 15.869 18.6641C15.869 17.2318 17.0336 16.0671 18.4659 16.0671C19.8983 16.0671 21.0629 17.2318 21.0629 18.6641C21.0629 20.0965 19.8948 21.2611 18.4659 21.2611ZM23.5556 14.5062C23.5556 15.0242 23.1384 15.4379 22.6239 15.4379C22.1059 15.4379 21.6922 15.0207 21.6922 14.5062C21.6922 13.9916 22.1094 13.5744 22.6239 13.5744C23.1384 13.5744 23.5556 13.9916 23.5556 14.5062ZM26.2013 15.4518C26.1422 14.2037 25.8571 13.0982 24.9428 12.1873C24.0319 11.2764 22.9264 10.9914 21.6783 10.9288C20.392 10.8558 16.5365 10.8558 15.2501 10.9288C14.0055 10.9879 12.9 11.273 11.9856 12.1838C11.0713 13.0947 10.7897 14.2002 10.7271 15.4483C10.6541 16.7346 10.6541 20.5901 10.7271 21.8765C10.7862 23.1246 11.0713 24.2301 11.9856 25.141C12.9 26.0518 14.002 26.3369 15.2501 26.3995C16.5365 26.4725 20.392 26.4725 21.6783 26.3995C22.9264 26.3404 24.0319 26.0553 24.9428 25.141C25.8536 24.2301 26.1387 23.1246 26.2013 21.8765C26.2743 20.5901 26.2743 16.7381 26.2013 15.4518ZM24.5395 23.2567C24.2683 23.9381 23.7434 24.463 23.0585 24.7377C22.0329 25.1444 19.5993 25.0506 18.4659 25.0506C17.3326 25.0506 14.8955 25.141 13.8734 24.7377C13.192 24.4665 12.667 23.9416 12.3924 23.2567C11.9856 22.2311 12.0795 19.7975 12.0795 18.6641C12.0795 17.5308 11.9891 15.0937 12.3924 14.0716C12.6636 13.3902 13.1885 12.8652 13.8734 12.5906C14.899 12.1838 17.3326 12.2777 18.4659 12.2777C19.5993 12.2777 22.0364 12.1873 23.0585 12.5906C23.7399 12.8617 24.2649 13.3867 24.5395 14.0716C24.9463 15.0972 24.8524 17.5308 24.8524 18.6641C24.8524 19.7975 24.9463 22.2346 24.5395 23.2567Z" fill="#2A2F2F"/>
</svg>
