<svg width="38" height="38" viewBox="0 0 38 38" fill="none" xmlns="http://www.w3.org/2000/svg">
<rect x="0.976074" y="0.193848" width="37.024" height="37.024" rx="10.68" fill="#F6F6F6"/>
<path d="M15.8392 15.4379V24.4658H13.4278V15.4379H15.8392ZM13.2776 13.0849C13.2776 12.7345 13.4 12.4453 13.6448 12.2172C13.8895 11.9891 14.2177 11.8751 14.6293 11.8751C15.0354 11.8751 15.3608 11.9891 15.6055 12.2172C15.8559 12.4453 15.981 12.7345 15.981 13.0849C15.981 13.4354 15.8559 13.7246 15.6055 13.9527C15.3608 14.1808 15.0354 14.2948 14.6293 14.2948C14.2177 14.2948 13.8895 14.1808 13.6448 13.9527C13.4 13.7246 13.2776 13.4354 13.2776 13.0849ZM20.5197 17.3653V24.4658H18.1167V15.4379H20.3695L20.5197 17.3653ZM20.1692 19.6348H19.5184C19.5184 18.9673 19.6046 18.3665 19.7771 17.8325C19.9495 17.293 20.1915 16.8341 20.503 16.4558C20.8145 16.072 21.1844 15.78 21.6127 15.5797C22.0466 15.3739 22.5305 15.271 23.0645 15.271C23.4873 15.271 23.8739 15.3322 24.2243 15.4546C24.5747 15.5769 24.8751 15.7716 25.1254 16.0386C25.3813 16.3056 25.576 16.6589 25.7095 17.0983C25.8485 17.5377 25.9181 18.0745 25.9181 18.7086V24.4658H23.4984V18.7003C23.4984 18.2998 23.4428 17.9883 23.3315 17.7658C23.2203 17.5433 23.0562 17.3875 22.8392 17.2985C22.6279 17.204 22.3664 17.1567 22.0549 17.1567C21.7323 17.1567 21.4514 17.2207 21.2122 17.3486C20.9786 17.4765 20.7839 17.6545 20.6281 17.8826C20.478 18.1051 20.3639 18.3665 20.286 18.6669C20.2082 18.9673 20.1692 19.2899 20.1692 19.6348Z" fill="#2A2F2F"/>
</svg>
