<svg width="34" height="34" viewBox="0 0 34 34" fill="none" xmlns="http://www.w3.org/2000/svg">
<circle cx="17.1288" cy="16.9112" r="16.1796" fill="white"/>
<path fill-rule="evenodd" clip-rule="evenodd" d="M16.7198 12.7123C15.345 11.1101 13.0523 10.6791 11.3298 12.1463C9.60723 13.6134 9.36472 16.0664 10.7174 17.8016C11.8422 19.2442 15.2459 22.287 16.3615 23.2718C16.4863 23.382 16.5487 23.4371 16.6215 23.4587C16.685 23.4776 16.7545 23.4776 16.8181 23.4587C16.8909 23.4371 16.9533 23.382 17.0781 23.2718C18.1936 22.287 21.5974 19.2442 22.7221 17.8016C24.0748 16.0664 23.8619 13.598 22.1098 12.1463C20.3576 10.6945 18.0946 11.1101 16.7198 12.7123Z" stroke="#3C4242" stroke-width="1.26066" stroke-linecap="round" stroke-linejoin="round"/>
</svg>
