<svg width="21" height="20" viewBox="0 0 21 20" fill="none" xmlns="http://www.w3.org/2000/svg">
<path d="M17.5277 17.697C17.8206 17.9899 18.2955 17.9899 18.5884 17.697C18.8813 17.4041 18.8813 16.9292 18.5884 16.6363L17.5277 17.697ZM14.808 8.83334C14.808 11.6408 12.5321 13.9167 9.72469 13.9167V15.4167C13.3606 15.4167 16.308 12.4692 16.308 8.83334H14.808ZM9.72469 13.9167C6.91724 13.9167 4.64136 11.6408 4.64136 8.83334H3.14136C3.14136 12.4692 6.08882 15.4167 9.72469 15.4167V13.9167ZM4.64136 8.83334C4.64136 6.02589 6.91724 3.75 9.72469 3.75V2.25C6.08882 2.25 3.14136 5.19746 3.14136 8.83334H4.64136ZM9.72469 3.75C12.5321 3.75 14.808 6.02589 14.808 8.83334H16.308C16.308 5.19746 13.3606 2.25 9.72469 2.25V3.75ZM13.361 13.5303L17.5277 17.697L18.5884 16.6363L14.4217 12.4697L13.361 13.5303Z" fill="#807D7E"/>
</svg>
