<svg width="705" height="569" viewBox="0 0 705 569" fill="none" xmlns="http://www.w3.org/2000/svg">
<g filter="url(#filter0_dd_5_2737)">
<rect x="6" y="6" width="693" height="557" rx="4" fill="white"/>
</g>
<circle cx="353" cy="169" r="85" fill="#F0F9F4"/>
<path fill-rule="evenodd" clip-rule="evenodd" d="M353.479 147.46C347.256 140.208 336.878 138.257 329.081 144.898C321.285 151.539 320.187 162.642 326.31 170.496C331.401 177.026 346.807 190.799 351.857 195.257C352.422 195.755 352.704 196.005 353.034 196.103C353.321 196.188 353.636 196.188 353.924 196.103C354.253 196.005 354.536 195.755 355.1 195.257C360.15 190.799 375.557 177.026 380.648 170.496C386.771 162.642 385.807 151.469 377.876 144.898C369.945 138.327 359.702 140.208 353.479 147.46Z" stroke="#28A642" stroke-width="6.225" stroke-linecap="round" stroke-linejoin="round"/>
<path d="M173.763 315.2L179.067 324.822L184.371 315.2H189.573L181.481 329.412V339H176.653V329.412L168.561 315.2H173.763ZM191.168 336.739C189.298 334.96 188.363 332.778 188.363 330.194C188.363 327.61 189.298 325.428 191.168 323.649C193.038 321.87 195.361 320.98 198.138 320.98C199.974 320.98 201.64 321.388 203.136 322.204C204.632 323.02 205.799 324.131 206.638 325.536C207.488 326.941 207.913 328.494 207.913 330.194C207.913 331.894 207.488 333.447 206.638 334.852C205.799 336.257 204.632 337.368 203.136 338.184C201.64 339 199.974 339.408 198.138 339.408C195.361 339.408 193.038 338.518 191.168 336.739ZM193.055 330.194C193.055 331.633 193.542 332.84 194.517 333.815C195.491 334.79 196.698 335.277 198.138 335.277C199.577 335.277 200.784 334.79 201.759 333.815C202.745 332.84 203.238 331.633 203.238 330.194C203.238 328.766 202.745 327.565 201.759 326.59C200.784 325.604 199.577 325.111 198.138 325.111C196.698 325.111 195.491 325.604 194.517 326.59C193.542 327.565 193.055 328.766 193.055 330.194ZM222.912 332.846V321.388H227.587V339H222.912V337.062C222.311 337.776 221.569 338.348 220.685 338.779C219.812 339.198 218.906 339.408 217.965 339.408C215.891 339.408 214.197 338.745 212.882 337.419C211.579 336.093 210.927 334.365 210.927 332.234V321.388H215.602V331.775C215.602 332.772 215.919 333.605 216.554 334.274C217.2 334.943 218.05 335.277 219.104 335.277C219.818 335.277 220.526 335.039 221.229 334.563C221.932 334.087 222.493 333.515 222.912 332.846ZM240.907 325.111C240.069 325.111 239.292 325.366 238.578 325.876C237.864 326.386 237.269 327.083 236.793 327.967V339H232.118V321.388H236.793V323.547C238.074 321.836 239.644 320.98 241.502 320.98C242.103 320.98 242.636 321.105 243.1 321.354L242.777 325.451C242.12 325.224 241.497 325.111 240.907 325.111ZM265.332 321.388H270.024L273.05 333.169L276.127 321.388H280.904L275.566 339H270.738L267.678 327.542L264.618 339H259.79L254.452 321.388H259.229L262.306 333.169L265.332 321.388ZM283.569 339V321.388H288.244V339H283.569ZM283.943 318.617C283.41 318.096 283.144 317.455 283.144 316.696C283.144 315.937 283.41 315.296 283.943 314.775C284.475 314.254 285.133 313.993 285.915 313.993C286.697 313.993 287.354 314.254 287.887 314.775C288.419 315.296 288.686 315.937 288.686 316.696C288.686 317.455 288.419 318.096 287.887 318.617C287.354 319.138 286.697 319.399 285.915 319.399C285.133 319.399 284.475 319.138 283.943 318.617ZM291.673 336.484L294.019 333.577C294.586 334.223 295.254 334.733 296.025 335.107C296.807 335.481 297.629 335.668 298.49 335.668C299.295 335.668 299.924 335.509 300.377 335.192C300.842 334.875 301.074 334.45 301.074 333.917C301.074 333.373 300.847 332.937 300.394 332.608C299.941 332.268 299.159 331.985 298.048 331.758C294.229 330.976 292.319 329.095 292.319 326.114C292.319 324.618 292.903 323.388 294.07 322.425C295.249 321.462 296.784 320.98 298.677 320.98C299.856 320.98 300.989 321.201 302.077 321.643C303.165 322.074 304.117 322.652 304.933 323.377L302.689 326.301C301.408 325.247 300.207 324.72 299.085 324.72C298.439 324.72 297.912 324.856 297.504 325.128C297.096 325.389 296.892 325.74 296.892 326.182C296.892 327.202 297.827 327.905 299.697 328.29C301.726 328.698 303.222 329.372 304.185 330.313C305.16 331.254 305.647 332.472 305.647 333.968C305.647 335.555 305.029 336.858 303.794 337.878C302.559 338.898 300.91 339.408 298.847 339.408C297.385 339.408 296.025 339.153 294.767 338.643C293.509 338.122 292.478 337.402 291.673 336.484ZM313.659 327.542V339H308.984V314.18H313.659V323.326C314.259 322.612 314.996 322.045 315.869 321.626C316.753 321.195 317.665 320.98 318.606 320.98C320.68 320.98 322.368 321.643 323.672 322.969C324.986 324.295 325.644 326.023 325.644 328.154V339H320.969V328.613C320.969 327.616 320.646 326.783 320 326.114C319.365 325.445 318.521 325.111 317.467 325.111C316.753 325.111 316.044 325.349 315.342 325.825C314.639 326.301 314.078 326.873 313.659 327.542ZM329.92 339V314.18H334.595V339H329.92ZM339.317 339V321.388H343.992V339H339.317ZM339.691 318.617C339.158 318.096 338.892 317.455 338.892 316.696C338.892 315.937 339.158 315.296 339.691 314.775C340.223 314.254 340.881 313.993 341.663 313.993C342.445 313.993 343.102 314.254 343.635 314.775C344.167 315.296 344.434 315.937 344.434 316.696C344.434 317.455 344.167 318.096 343.635 318.617C343.102 319.138 342.445 319.399 341.663 319.399C340.881 319.399 340.223 319.138 339.691 318.617ZM347.421 336.484L349.767 333.577C350.334 334.223 351.003 334.733 351.773 335.107C352.555 335.481 353.377 335.668 354.238 335.668C355.043 335.668 355.672 335.509 356.125 335.192C356.59 334.875 356.822 334.45 356.822 333.917C356.822 333.373 356.596 332.937 356.142 332.608C355.689 332.268 354.907 331.985 353.796 331.758C349.977 330.976 348.067 329.095 348.067 326.114C348.067 324.618 348.651 323.388 349.818 322.425C350.997 321.462 352.533 320.98 354.425 320.98C355.604 320.98 356.737 321.201 357.825 321.643C358.913 322.074 359.865 322.652 360.681 323.377L358.437 326.301C357.157 325.247 355.955 324.72 354.833 324.72C354.187 324.72 353.66 324.856 353.252 325.128C352.844 325.389 352.64 325.74 352.64 326.182C352.64 327.202 353.575 327.905 355.445 328.29C357.474 328.698 358.97 329.372 359.933 330.313C360.908 331.254 361.395 332.472 361.395 333.968C361.395 335.555 360.778 336.858 359.542 337.878C358.307 338.898 356.658 339.408 354.595 339.408C353.133 339.408 351.773 339.153 350.515 338.643C349.257 338.122 348.226 337.402 347.421 336.484ZM370.282 325.451V332.897C370.282 333.747 370.486 334.37 370.894 334.767C371.313 335.152 372.004 335.345 372.968 335.345C373.568 335.345 374.124 335.317 374.634 335.26V339.17C373.897 339.329 373.087 339.408 372.203 339.408C367.805 339.408 365.607 337.334 365.607 333.186V325.451H362.87V321.388H365.607V316.696L370.282 316.288V321.388H374.43V325.451H370.282ZM388.125 339V321.388H392.8V339H388.125ZM388.499 318.617C387.967 318.096 387.7 317.455 387.7 316.696C387.7 315.937 387.967 315.296 388.499 314.775C389.032 314.254 389.689 313.993 390.471 313.993C391.253 313.993 391.911 314.254 392.443 314.775C392.976 315.296 393.242 315.937 393.242 316.696C393.242 317.455 392.976 318.096 392.443 318.617C391.911 319.138 391.253 319.399 390.471 319.399C389.689 319.399 389.032 319.138 388.499 318.617ZM396.23 336.484L398.576 333.577C399.142 334.223 399.811 334.733 400.582 335.107C401.364 335.481 402.185 335.668 403.047 335.668C403.851 335.668 404.48 335.509 404.934 335.192C405.398 334.875 405.631 334.45 405.631 333.917C405.631 333.373 405.404 332.937 404.951 332.608C404.497 332.268 403.715 331.985 402.605 331.758C398.785 330.976 396.876 329.095 396.876 326.114C396.876 324.618 397.459 323.388 398.627 322.425C399.805 321.462 401.341 320.98 403.234 320.98C404.412 320.98 405.546 321.201 406.634 321.643C407.722 322.074 408.674 322.652 409.49 323.377L407.246 326.301C405.965 325.247 404.764 324.72 403.642 324.72C402.996 324.72 402.469 324.856 402.061 325.128C401.653 325.389 401.449 325.74 401.449 326.182C401.449 327.202 402.384 327.905 404.254 328.29C406.282 328.698 407.778 329.372 408.742 330.313C409.716 331.254 410.204 332.472 410.204 333.968C410.204 335.555 409.586 336.858 408.351 337.878C407.115 338.898 405.466 339.408 403.404 339.408C401.942 339.408 400.582 339.153 399.324 338.643C398.066 338.122 397.034 337.402 396.23 336.484ZM427.37 331.588C427.574 332.812 428.141 333.804 429.07 334.563C430.011 335.311 431.144 335.685 432.47 335.685C434.317 335.685 435.983 334.954 437.468 333.492L440.273 336.212C438.312 338.343 435.717 339.408 432.487 339.408C431.059 339.408 429.727 339.17 428.492 338.694C427.257 338.218 426.214 337.566 425.364 336.739C424.514 335.912 423.845 334.937 423.358 333.815C422.882 332.682 422.644 331.475 422.644 330.194C422.644 328.925 422.888 327.723 423.375 326.59C423.862 325.457 424.525 324.482 425.364 323.666C426.214 322.839 427.234 322.187 428.424 321.711C429.614 321.224 430.878 320.98 432.215 320.98C433.972 320.98 435.558 321.382 436.975 322.187C438.392 322.98 439.491 324.057 440.273 325.417C441.055 326.766 441.446 328.256 441.446 329.888C441.446 330.477 441.378 331.044 441.242 331.588H427.37ZM432.181 324.703C431.082 324.703 430.101 325.026 429.24 325.672C428.39 326.318 427.806 327.179 427.489 328.256H436.635C436.374 327.191 435.847 326.335 435.054 325.689C434.261 325.032 433.303 324.703 432.181 324.703ZM444.818 321.388H449.493V323.326C450.059 322.623 450.756 322.062 451.584 321.643C452.411 321.224 453.295 321.014 454.236 321.014C455.471 321.014 456.582 321.28 457.568 321.813C458.565 322.346 459.364 323.088 459.965 324.04C460.599 323.122 461.438 322.385 462.481 321.83C463.523 321.263 464.623 320.98 465.779 320.98C467.807 320.98 469.456 321.649 470.726 322.986C472.006 324.312 472.647 326.018 472.647 328.103V339H467.972V328.579C467.972 327.593 467.677 326.771 467.088 326.114C466.51 325.445 465.739 325.111 464.776 325.111C464.062 325.111 463.376 325.349 462.719 325.825C462.061 326.29 461.5 326.896 461.036 327.644C461.058 328.143 461.07 328.528 461.07 328.8V339H456.395V328.579C456.395 327.57 456.1 326.743 455.511 326.097C454.921 325.44 454.151 325.111 453.199 325.111C452.485 325.111 451.799 325.343 451.142 325.808C450.496 326.273 449.946 326.868 449.493 327.593V339H444.818V321.388ZM486.039 335.277C487.479 335.277 488.686 334.79 489.66 333.815C490.635 332.84 491.122 331.633 491.122 330.194C491.122 328.755 490.635 327.548 489.66 326.573C488.686 325.598 487.479 325.111 486.039 325.111C485.031 325.111 484.113 325.366 483.285 325.876C482.469 326.386 481.857 327.066 481.449 327.916V332.472C481.857 333.322 482.469 334.002 483.285 334.512C484.113 335.022 485.031 335.277 486.039 335.277ZM487.025 320.98C488.68 320.98 490.182 321.399 491.53 322.238C492.879 323.065 493.927 324.182 494.675 325.587C495.435 326.992 495.814 328.528 495.814 330.194C495.814 331.86 495.435 333.396 494.675 334.801C493.927 336.206 492.879 337.328 491.53 338.167C490.182 338.994 488.68 339.408 487.025 339.408C484.793 339.408 482.934 338.683 481.449 337.232V346.888H476.825V321.388H481.449V323.156C482.934 321.705 484.793 320.98 487.025 320.98ZM504.555 325.451V332.897C504.555 333.747 504.759 334.37 505.167 334.767C505.586 335.152 506.278 335.345 507.241 335.345C507.842 335.345 508.397 335.317 508.907 335.26V339.17C508.17 339.329 507.36 339.408 506.476 339.408C502.079 339.408 499.88 337.334 499.88 333.186V325.451H497.143V321.388H499.88V316.696L504.555 316.288V321.388H508.703V325.451H504.555ZM518.693 346.888H513.814L516.908 339L510.448 321.388H515.31L519.22 333.084L523.198 321.388H528.06L518.693 346.888ZM529.753 338.609C529.209 338.065 528.937 337.391 528.937 336.586C528.937 335.781 529.209 335.113 529.753 334.58C530.297 334.036 530.983 333.764 531.81 333.764C532.638 333.764 533.323 334.036 533.867 334.58C534.423 335.113 534.7 335.781 534.7 336.586C534.7 337.391 534.423 338.065 533.867 338.609C533.323 339.142 532.638 339.408 531.81 339.408C530.983 339.408 530.297 339.142 529.753 338.609Z" fill="#3C4242"/>
<path d="M134.252 362.6L130.556 368.472V373H129.052V368.504L125.34 362.6H127.068L129.788 366.936L132.524 362.6H134.252ZM137.944 373.144C135.72 373.144 134.168 371.512 134.168 369.32C134.168 367.096 135.72 365.496 137.944 365.496C140.152 365.496 141.688 367.096 141.688 369.32C141.688 371.512 140.152 373.144 137.944 373.144ZM137.944 371.768C139.336 371.768 140.264 370.712 140.264 369.32C140.264 367.912 139.336 366.888 137.944 366.888C136.536 366.888 135.608 367.912 135.608 369.32C135.608 370.712 136.536 371.768 137.944 371.768ZM148.865 365.64H150.305V373H148.865V372.12C148.305 372.84 147.441 373.128 146.593 373.128C145.169 373.128 143.681 372.296 143.681 370.168V365.64H145.121V369.96C145.121 371.32 146.081 371.88 147.009 371.88C147.921 371.88 148.865 371.32 148.865 369.96V365.64ZM161.927 362.6H163.367V373H161.927V371.864C161.383 372.648 160.535 373.128 159.399 373.128C157.319 373.128 155.831 371.512 155.831 369.32C155.831 367.096 157.319 365.528 159.399 365.528C160.535 365.528 161.383 366.008 161.927 366.776V362.6ZM159.591 371.768C160.999 371.768 161.927 370.728 161.927 369.32C161.927 367.896 160.999 366.888 159.591 366.888C158.167 366.888 157.239 367.896 157.239 369.32C157.239 370.728 158.167 371.768 159.591 371.768ZM169.146 373.144C166.922 373.144 165.37 371.512 165.37 369.32C165.37 367.096 166.922 365.496 169.146 365.496C171.354 365.496 172.89 367.096 172.89 369.32C172.89 371.512 171.354 373.144 169.146 373.144ZM169.146 371.768C170.538 371.768 171.466 370.712 171.466 369.32C171.466 367.912 170.538 366.888 169.146 366.888C167.738 366.888 166.81 367.912 166.81 369.32C166.81 370.712 167.738 371.768 169.146 371.768ZM178.595 365.528C180.019 365.528 181.507 366.344 181.507 368.472V373H180.067V368.68C180.067 367.32 179.107 366.76 178.179 366.76C177.267 366.76 176.323 367.32 176.323 368.68V373H174.883V365.64H176.323V366.536C176.883 365.816 177.747 365.528 178.595 365.528ZM183.926 362.6H185.414L184.518 364.936H183.43L183.926 362.6ZM190.687 366.744H188.975V370.904C188.975 371.704 189.487 371.848 189.999 371.848H190.607V373H189.439C188.207 373 187.535 372.312 187.535 371.112V366.744H186.527V365.64H187.535V363.384H188.975V365.64H190.687V366.744ZM199.765 365.528C201.189 365.528 202.677 366.344 202.677 368.472V373H201.237V368.68C201.237 367.32 200.277 366.76 199.349 366.76C198.437 366.76 197.493 367.32 197.493 368.68V373H196.053V362.6H197.493V366.536C198.053 365.816 198.917 365.528 199.765 365.528ZM210.776 365.64H212.216V373H210.776V371.864C210.232 372.648 209.384 373.128 208.248 373.128C206.168 373.128 204.68 371.512 204.68 369.32C204.68 367.096 206.168 365.528 208.248 365.528C209.384 365.528 210.232 366.008 210.776 366.776V365.64ZM208.44 371.768C209.848 371.768 210.776 370.728 210.776 369.32C210.776 367.896 209.848 366.888 208.44 366.888C207.016 366.888 206.088 367.896 206.088 369.32C206.088 370.728 207.016 371.768 208.44 371.768ZM216.715 373L213.819 365.64H215.323L217.435 371.048L219.563 365.64H221.067L218.139 373H216.715ZM225.765 365.512C227.909 365.512 229.301 367.128 229.301 369.32V369.736H223.509C223.653 371.048 224.581 371.896 225.861 371.896C226.917 371.896 227.589 371.416 227.941 370.904L228.949 371.624C228.309 372.552 227.205 373.144 225.861 373.144C223.621 373.144 222.117 371.512 222.117 369.32C222.117 367.128 223.557 365.512 225.765 365.512ZM225.765 366.664C224.501 366.664 223.685 367.512 223.509 368.792H227.957C227.781 367.56 226.997 366.664 225.765 366.664ZM240.681 365.64H242.121V373H240.681V371.864C240.137 372.648 239.289 373.128 238.153 373.128C236.073 373.128 234.585 371.512 234.585 369.32C234.585 367.096 236.073 365.528 238.153 365.528C239.289 365.528 240.137 366.008 240.681 366.776V365.64ZM238.345 371.768C239.753 371.768 240.681 370.728 240.681 369.32C240.681 367.896 239.753 366.888 238.345 366.888C236.921 366.888 235.993 367.896 235.993 369.32C235.993 370.728 236.921 371.768 238.345 371.768ZM248.076 365.528C249.5 365.528 250.988 366.344 250.988 368.472V373H249.548V368.68C249.548 367.32 248.588 366.76 247.66 366.76C246.748 366.76 245.804 367.32 245.804 368.68V373H244.364V365.64H245.804V366.536C246.364 365.816 247.228 365.528 248.076 365.528ZM258.179 365.64H259.683L255.587 375.944H254.163L255.331 373L252.435 365.64H253.939L256.051 371L258.179 365.64ZM268.776 365.528C270.856 365.528 272.344 367.144 272.344 369.336C272.344 371.544 270.856 373.128 268.776 373.128C267.64 373.128 266.792 372.648 266.248 371.88V375.944H264.808V365.64H266.248V366.792C266.792 366.008 267.64 365.528 268.776 365.528ZM268.584 371.768C270.008 371.768 270.936 370.744 270.936 369.336C270.936 367.912 270.008 366.888 268.584 366.888C267.176 366.888 266.248 367.912 266.248 369.336C266.248 370.744 267.176 371.768 268.584 371.768ZM275.787 367C276.363 365.992 277.355 365.544 278.379 365.528V366.888C277.387 366.904 275.787 367.336 275.787 369.224V373H274.347V365.64H275.787V367ZM283.188 373.144C280.964 373.144 279.412 371.512 279.412 369.32C279.412 367.096 280.964 365.496 283.188 365.496C285.396 365.496 286.932 367.096 286.932 369.32C286.932 371.512 285.396 373.144 283.188 373.144ZM283.188 371.768C284.58 371.768 285.508 370.712 285.508 369.32C285.508 367.912 284.58 366.888 283.188 366.888C281.78 366.888 280.852 367.912 280.852 369.32C280.852 370.712 281.78 371.768 283.188 371.768ZM294.781 362.6H296.221V373H294.781V371.864C294.237 372.648 293.389 373.128 292.253 373.128C290.173 373.128 288.685 371.512 288.685 369.32C288.685 367.096 290.173 365.528 292.253 365.528C293.389 365.528 294.237 366.008 294.781 366.776V362.6ZM292.445 371.768C293.853 371.768 294.781 370.728 294.781 369.32C294.781 367.896 293.853 366.888 292.445 366.888C291.021 366.888 290.093 367.896 290.093 369.32C290.093 370.728 291.021 371.768 292.445 371.768ZM303.647 365.64H305.087V373H303.647V372.12C303.087 372.84 302.223 373.128 301.375 373.128C299.951 373.128 298.463 372.296 298.463 370.168V365.64H299.903V369.96C299.903 371.32 300.863 371.88 301.791 371.88C302.703 371.88 303.647 371.32 303.647 369.96V365.64ZM312.786 367.8C312.434 367.304 311.81 366.888 310.866 366.888C309.458 366.888 308.498 367.896 308.498 369.32C308.498 370.728 309.458 371.768 310.866 371.768C311.81 371.768 312.418 371.368 312.786 370.872L313.826 371.64C313.186 372.568 312.13 373.144 310.834 373.144C308.626 373.144 307.09 371.528 307.09 369.32C307.09 367.096 308.626 365.512 310.834 365.512C312.13 365.512 313.186 366.088 313.826 367L312.786 367.8ZM319.346 366.744H317.634V370.904C317.634 371.704 318.146 371.848 318.658 371.848H319.266V373H318.098C316.866 373 316.194 372.312 316.194 371.112V366.744H315.186V365.64H316.194V363.384H317.634V365.64H319.346V366.744ZM320.789 371.464L321.797 370.824C322.021 371.416 322.917 372.024 323.989 372.024C324.981 372.024 325.493 371.688 325.493 370.968C325.493 370.152 324.293 369.96 323.637 369.768C322.997 369.576 321.093 369.176 321.093 367.624C321.093 366.184 322.341 365.48 323.925 365.48C325.445 365.48 326.485 366.168 326.837 366.984L325.861 367.576C325.637 367.096 324.821 366.616 323.877 366.616C322.965 366.616 322.485 366.984 322.485 367.56C322.485 368.328 323.605 368.504 324.261 368.696C324.901 368.888 326.885 369.336 326.885 370.92C326.885 372.408 325.813 373.208 323.973 373.208C322.261 373.208 321.157 372.424 320.789 371.464ZM333.099 364.232C332.683 364.232 332.251 363.896 332.251 363.384C332.251 362.856 332.683 362.568 333.099 362.568C333.515 362.568 333.931 362.856 333.931 363.384C333.931 363.896 333.515 364.232 333.099 364.232ZM333.819 373H332.379V365.64H333.819V373ZM339.877 365.528C341.301 365.528 342.789 366.344 342.789 368.472V373H341.349V368.68C341.349 367.32 340.389 366.76 339.461 366.76C338.549 366.76 337.605 367.32 337.605 368.68V373H336.165V365.64H337.605V366.536C338.165 365.816 339.029 365.528 339.877 365.528ZM352.235 366.744H350.523V370.904C350.523 371.704 351.035 371.848 351.547 371.848H352.155V373H350.987C349.755 373 349.083 372.312 349.083 371.112V366.744H348.075V365.64H349.083V363.384H350.523V365.64H352.235V366.744ZM357.79 365.528C359.214 365.528 360.702 366.344 360.702 368.472V373H359.262V368.68C359.262 367.32 358.302 366.76 357.374 366.76C356.462 366.76 355.518 367.32 355.518 368.68V373H354.078V362.6H355.518V366.536C356.078 365.816 356.942 365.528 357.79 365.528ZM366.353 365.512C368.497 365.512 369.889 367.128 369.889 369.32V369.736H364.097C364.241 371.048 365.169 371.896 366.449 371.896C367.505 371.896 368.177 371.416 368.529 370.904L369.537 371.624C368.897 372.552 367.793 373.144 366.449 373.144C364.209 373.144 362.705 371.512 362.705 369.32C362.705 367.128 364.145 365.512 366.353 365.512ZM366.353 366.664C365.089 366.664 364.273 367.512 364.097 368.792H368.545C368.369 367.56 367.585 366.664 366.353 366.664ZM384.533 365.64H386.037L383.589 373H382.165L380.437 367.912L378.693 373H377.269L374.853 365.64H376.357L378.069 370.968L379.925 365.64H380.981L382.805 370.968L384.533 365.64ZM388.487 364.232C388.071 364.232 387.639 363.896 387.639 363.384C387.639 362.856 388.071 362.568 388.487 362.568C388.903 362.568 389.319 362.856 389.319 363.384C389.319 363.896 388.903 364.232 388.487 364.232ZM389.207 373H387.767V365.64H389.207V373ZM391.153 371.464L392.161 370.824C392.385 371.416 393.281 372.024 394.353 372.024C395.345 372.024 395.857 371.688 395.857 370.968C395.857 370.152 394.657 369.96 394.001 369.768C393.361 369.576 391.457 369.176 391.457 367.624C391.457 366.184 392.705 365.48 394.289 365.48C395.809 365.48 396.849 366.168 397.201 366.984L396.225 367.576C396.001 367.096 395.185 366.616 394.241 366.616C393.329 366.616 392.849 366.984 392.849 367.56C392.849 368.328 393.969 368.504 394.625 368.696C395.265 368.888 397.249 369.336 397.249 370.92C397.249 372.408 396.177 373.208 394.337 373.208C392.625 373.208 391.521 372.424 391.153 371.464ZM402.804 365.528C404.228 365.528 405.716 366.344 405.716 368.472V373H404.276V368.68C404.276 367.32 403.316 366.76 402.388 366.76C401.476 366.76 400.532 367.32 400.532 368.68V373H399.092V362.6H400.532V366.536C401.092 365.816 401.956 365.528 402.804 365.528ZM409.398 373H407.958V362.6H409.414L409.398 373ZM412.501 364.232C412.085 364.232 411.653 363.896 411.653 363.384C411.653 362.856 412.085 362.568 412.501 362.568C412.917 362.568 413.333 362.856 413.333 363.384C413.333 363.896 412.917 364.232 412.501 364.232ZM413.221 373H411.781V365.64H413.221V373ZM415.167 371.464L416.175 370.824C416.399 371.416 417.295 372.024 418.367 372.024C419.359 372.024 419.871 371.688 419.871 370.968C419.871 370.152 418.671 369.96 418.015 369.768C417.375 369.576 415.471 369.176 415.471 367.624C415.471 366.184 416.719 365.48 418.303 365.48C419.823 365.48 420.863 366.168 421.215 366.984L420.239 367.576C420.015 367.096 419.199 366.616 418.255 366.616C417.343 366.616 416.863 366.984 416.863 367.56C416.863 368.328 417.983 368.504 418.639 368.696C419.279 368.888 421.263 369.336 421.263 370.92C421.263 372.408 420.191 373.208 418.351 373.208C416.639 373.208 415.535 372.424 415.167 371.464ZM426.786 366.744H425.074V370.904C425.074 371.704 425.586 371.848 426.098 371.848H426.706V373H425.538C424.306 373 423.634 372.312 423.634 371.112V366.744H422.626V365.64H423.634V363.384H425.074V365.64H426.786V366.744ZM437.256 365.64H438.76L434.664 375.944H433.24L434.408 373L431.512 365.64H433.016L435.128 371L437.256 365.64ZM443.458 365.512C445.602 365.512 446.994 367.128 446.994 369.32V369.736H441.202C441.346 371.048 442.274 371.896 443.554 371.896C444.61 371.896 445.282 371.416 445.634 370.904L446.642 371.624C446.002 372.552 444.898 373.144 443.554 373.144C441.314 373.144 439.81 371.512 439.81 369.32C439.81 367.128 441.25 365.512 443.458 365.512ZM443.458 366.664C442.194 366.664 441.378 367.512 441.202 368.792H445.65C445.474 367.56 444.69 366.664 443.458 366.664ZM452.519 366.744H450.807V370.904C450.807 371.704 451.319 371.848 451.831 371.848H452.439V373H451.271C450.039 373 449.367 372.312 449.367 371.112V366.744H448.359V365.64H449.367V363.384H450.807V365.64H452.519V366.744ZM454.858 373.064C454.394 373.064 454.042 372.712 454.042 372.248C454.042 371.768 454.394 371.432 454.858 371.432C455.338 371.432 455.674 371.768 455.674 372.248C455.674 372.712 455.338 373.064 454.858 373.064ZM469.119 362.6L465.423 368.472V373H463.919V368.504L460.207 362.6H461.935L464.655 366.936L467.391 362.6H469.119ZM472.811 373.144C470.587 373.144 469.035 371.512 469.035 369.32C469.035 367.096 470.587 365.496 472.811 365.496C475.019 365.496 476.555 367.096 476.555 369.32C476.555 371.512 475.019 373.144 472.811 373.144ZM472.811 371.768C474.203 371.768 475.131 370.712 475.131 369.32C475.131 367.912 474.203 366.888 472.811 366.888C471.403 366.888 470.475 367.912 470.475 369.32C470.475 370.712 471.403 371.768 472.811 371.768ZM483.732 365.64H485.172V373H483.732V372.12C483.172 372.84 482.308 373.128 481.46 373.128C480.036 373.128 478.548 372.296 478.548 370.168V365.64H479.988V369.96C479.988 371.32 480.948 371.88 481.876 371.88C482.788 371.88 483.732 371.32 483.732 369.96V365.64ZM500.058 365.64H501.562L499.114 373H497.69L495.962 367.912L494.218 373H492.794L490.378 365.64H491.882L493.594 370.968L495.45 365.64H496.506L498.33 370.968L500.058 365.64ZM504.013 364.232C503.597 364.232 503.165 363.896 503.165 363.384C503.165 362.856 503.597 362.568 504.013 362.568C504.429 362.568 504.845 362.856 504.845 363.384C504.845 363.896 504.429 364.232 504.013 364.232ZM504.733 373H503.293V365.64H504.733V373ZM508.518 373H507.078V362.6H508.534L508.518 373ZM512.213 373H510.773V362.6H512.229L512.213 373ZM521.064 363.736C520.36 363.736 519.96 364.12 519.96 364.824V365.64H521.816V366.744H519.96V373H518.52V366.744H517.512V365.64H518.52V364.744C518.52 363.368 519.272 362.6 520.648 362.6H521.992V363.736H521.064ZM524.597 364.232C524.181 364.232 523.749 363.896 523.749 363.384C523.749 362.856 524.181 362.568 524.597 362.568C525.013 362.568 525.429 362.856 525.429 363.384C525.429 363.896 525.013 364.232 524.597 364.232ZM525.317 373H523.877V365.64H525.317V373ZM531.375 365.528C532.799 365.528 534.287 366.344 534.287 368.472V373H532.847V368.68C532.847 367.32 531.887 366.76 530.959 366.76C530.047 366.76 529.103 367.32 529.103 368.68V373H527.663V365.64H529.103V366.536C529.663 365.816 530.527 365.528 531.375 365.528ZM542.386 362.6H543.826V373H542.386V371.864C541.842 372.648 540.994 373.128 539.858 373.128C537.778 373.128 536.29 371.512 536.29 369.32C536.29 367.096 537.778 365.528 539.858 365.528C540.994 365.528 541.842 366.008 542.386 366.776V362.6ZM540.05 371.768C541.458 371.768 542.386 370.728 542.386 369.32C542.386 367.896 541.458 366.888 540.05 366.888C538.626 366.888 537.698 367.896 537.698 369.32C537.698 370.728 538.626 371.768 540.05 371.768ZM555.448 365.64H556.888V373H555.448V371.864C554.904 372.648 554.056 373.128 552.92 373.128C550.84 373.128 549.352 371.512 549.352 369.32C549.352 367.096 550.84 365.528 552.92 365.528C554.056 365.528 554.904 366.008 555.448 366.776V365.64ZM553.112 371.768C554.52 371.768 555.448 370.728 555.448 369.32C555.448 367.896 554.52 366.888 553.112 366.888C551.688 366.888 550.76 367.896 550.76 369.32C550.76 370.728 551.688 371.768 553.112 371.768ZM564.093 373H562.653V362.6H564.109L564.093 373ZM569.884 373.144C567.66 373.144 566.108 371.512 566.108 369.32C566.108 367.096 567.66 365.496 569.884 365.496C572.092 365.496 573.628 367.096 573.628 369.32C573.628 371.512 572.092 373.144 569.884 373.144ZM569.884 371.768C571.276 371.768 572.204 370.712 572.204 369.32C572.204 367.912 571.276 366.888 569.884 366.888C568.476 366.888 567.548 367.912 567.548 369.32C567.548 370.712 568.476 371.768 569.884 371.768ZM579.145 366.744H577.433V370.904C577.433 371.704 577.945 371.848 578.457 371.848H579.065V373H577.897C576.665 373 575.993 372.312 575.993 371.112V366.744H574.985V365.64H575.993V363.384H577.433V365.64H579.145V366.744ZM208.764 393.144C206.54 393.144 204.988 391.512 204.988 389.32C204.988 387.096 206.54 385.496 208.764 385.496C210.972 385.496 212.508 387.096 212.508 389.32C212.508 391.512 210.972 393.144 208.764 393.144ZM208.764 391.768C210.156 391.768 211.084 390.712 211.084 389.32C211.084 387.912 210.156 386.888 208.764 386.888C207.356 386.888 206.428 387.912 206.428 389.32C206.428 390.712 207.356 391.768 208.764 391.768ZM217.417 383.736C216.713 383.736 216.313 384.12 216.313 384.824V385.64H218.169V386.744H216.313V393H214.873V386.744H213.865V385.64H214.873V384.744C214.873 383.368 215.625 382.6 217.001 382.6H218.345V383.736H217.417ZM224.474 384.232C224.058 384.232 223.626 383.896 223.626 383.384C223.626 382.856 224.058 382.568 224.474 382.568C224.89 382.568 225.306 382.856 225.306 383.384C225.306 383.896 224.89 384.232 224.474 384.232ZM225.194 393H223.754V385.64H225.194V393ZM231.251 385.528C232.675 385.528 234.163 386.344 234.163 388.472V393H232.723V388.68C232.723 387.32 231.763 386.76 230.835 386.76C229.923 386.76 228.979 387.32 228.979 388.68V393H227.539V385.64H228.979V386.536C229.539 385.816 230.403 385.528 231.251 385.528ZM240.008 386.744H238.296V390.904C238.296 391.704 238.808 391.848 239.32 391.848H239.928V393H238.76C237.528 393 236.856 392.312 236.856 391.112V386.744H235.848V385.64H236.856V383.384H238.296V385.64H240.008V386.744ZM244.947 385.512C247.091 385.512 248.483 387.128 248.483 389.32V389.736H242.691C242.835 391.048 243.763 391.896 245.043 391.896C246.099 391.896 246.771 391.416 247.123 390.904L248.131 391.624C247.491 392.552 246.387 393.144 245.043 393.144C242.803 393.144 241.299 391.512 241.299 389.32C241.299 387.128 242.739 385.512 244.947 385.512ZM244.947 386.664C243.683 386.664 242.867 387.512 242.691 388.792H247.139C246.963 387.56 246.179 386.664 244.947 386.664ZM251.924 387C252.5 385.992 253.492 385.544 254.516 385.528V386.888C253.524 386.904 251.924 387.336 251.924 389.224V393H250.484V385.64H251.924V387ZM259.196 385.512C261.34 385.512 262.732 387.128 262.732 389.32V389.736H256.94C257.084 391.048 258.012 391.896 259.292 391.896C260.348 391.896 261.02 391.416 261.372 390.904L262.38 391.624C261.74 392.552 260.636 393.144 259.292 393.144C257.052 393.144 255.548 391.512 255.548 389.32C255.548 387.128 256.988 385.512 259.196 385.512ZM259.196 386.664C257.932 386.664 257.116 387.512 256.94 388.792H261.388C261.212 387.56 260.428 386.664 259.196 386.664ZM264.177 391.464L265.185 390.824C265.409 391.416 266.305 392.024 267.377 392.024C268.369 392.024 268.881 391.688 268.881 390.968C268.881 390.152 267.681 389.96 267.025 389.768C266.385 389.576 264.481 389.176 264.481 387.624C264.481 386.184 265.729 385.48 267.313 385.48C268.833 385.48 269.873 386.168 270.225 386.984L269.249 387.576C269.025 387.096 268.209 386.616 267.265 386.616C266.353 386.616 265.873 386.984 265.873 387.56C265.873 388.328 266.993 388.504 267.649 388.696C268.289 388.888 270.273 389.336 270.273 390.92C270.273 392.408 269.201 393.208 267.361 393.208C265.649 393.208 264.545 392.424 264.177 391.464ZM275.796 386.744H274.084V390.904C274.084 391.704 274.596 391.848 275.108 391.848H275.716V393H274.548C273.316 393 272.644 392.312 272.644 391.112V386.744H271.636V385.64H272.644V383.384H274.084V385.64H275.796V386.744ZM278.487 384.232C278.071 384.232 277.639 383.896 277.639 383.384C277.639 382.856 278.071 382.568 278.487 382.568C278.903 382.568 279.319 382.856 279.319 383.384C279.319 383.896 278.903 384.232 278.487 384.232ZM279.207 393H277.767V385.64H279.207V393ZM285.265 385.528C286.689 385.528 288.177 386.344 288.177 388.472V393H286.737V388.68C286.737 387.32 285.777 386.76 284.849 386.76C283.937 386.76 282.993 387.32 282.993 388.68V393H281.553V385.64H282.993V386.536C283.553 385.816 284.417 385.528 285.265 385.528ZM296.275 385.64H297.715V392.456C297.715 394.584 296.243 396.072 293.827 396.072C292.531 396.072 291.427 395.56 290.755 394.76L291.699 393.96C292.291 394.6 293.075 394.84 293.827 394.84C294.963 394.84 296.275 394.168 296.275 392.456V391.864C295.731 392.632 294.867 393.128 293.731 393.128C291.667 393.128 290.179 391.512 290.179 389.32C290.179 387.128 291.667 385.528 293.731 385.528C294.867 385.528 295.731 386.008 296.275 386.792V385.64ZM293.923 391.768C295.347 391.768 296.275 390.728 296.275 389.32C296.275 387.896 295.347 386.888 293.923 386.888C292.515 386.888 291.587 387.896 291.587 389.32C291.587 390.728 292.515 391.768 293.923 391.768ZM307.449 385.528C309.529 385.528 311.017 387.144 311.017 389.336C311.017 391.544 309.529 393.128 307.449 393.128C306.313 393.128 305.465 392.648 304.921 391.88V395.944H303.481V385.64H304.921V386.792C305.465 386.008 306.313 385.528 307.449 385.528ZM307.257 391.768C308.681 391.768 309.609 390.744 309.609 389.336C309.609 387.912 308.681 386.888 307.257 386.888C305.849 386.888 304.921 387.912 304.921 389.336C304.921 390.744 305.849 391.768 307.257 391.768ZM314.46 387C315.036 385.992 316.028 385.544 317.052 385.528V386.888C316.06 386.904 314.46 387.336 314.46 389.224V393H313.02V385.64H314.46V387ZM321.86 393.144C319.636 393.144 318.084 391.512 318.084 389.32C318.084 387.096 319.636 385.496 321.86 385.496C324.068 385.496 325.604 387.096 325.604 389.32C325.604 391.512 324.068 393.144 321.86 393.144ZM321.86 391.768C323.252 391.768 324.18 390.712 324.18 389.32C324.18 387.912 323.252 386.888 321.86 386.888C320.452 386.888 319.524 387.912 319.524 389.32C319.524 390.712 320.452 391.768 321.86 391.768ZM333.454 382.6H334.894V393H333.454V391.864C332.91 392.648 332.062 393.128 330.926 393.128C328.846 393.128 327.358 391.512 327.358 389.32C327.358 387.096 328.846 385.528 330.926 385.528C332.062 385.528 332.91 386.008 333.454 386.776V382.6ZM331.118 391.768C332.526 391.768 333.454 390.728 333.454 389.32C333.454 387.896 332.526 386.888 331.118 386.888C329.694 386.888 328.766 387.896 328.766 389.32C328.766 390.728 329.694 391.768 331.118 391.768ZM342.32 385.64H343.76V393H342.32V392.12C341.76 392.84 340.896 393.128 340.048 393.128C338.624 393.128 337.136 392.296 337.136 390.168V385.64H338.576V389.96C338.576 391.32 339.536 391.88 340.464 391.88C341.376 391.88 342.32 391.32 342.32 389.96V385.64ZM351.459 387.8C351.107 387.304 350.483 386.888 349.539 386.888C348.131 386.888 347.171 387.896 347.171 389.32C347.171 390.728 348.131 391.768 349.539 391.768C350.483 391.768 351.091 391.368 351.459 390.872L352.499 391.64C351.859 392.568 350.803 393.144 349.507 393.144C347.299 393.144 345.763 391.528 345.763 389.32C345.763 387.096 347.299 385.512 349.507 385.512C350.803 385.512 351.859 386.088 352.499 387L351.459 387.8ZM358.019 386.744H356.307V390.904C356.307 391.704 356.819 391.848 357.331 391.848H357.939V393H356.771C355.539 393 354.867 392.312 354.867 391.112V386.744H353.859V385.64H354.867V383.384H356.307V385.64H358.019V386.744ZM359.462 391.464L360.47 390.824C360.694 391.416 361.59 392.024 362.662 392.024C363.654 392.024 364.166 391.688 364.166 390.968C364.166 390.152 362.966 389.96 362.31 389.768C361.67 389.576 359.766 389.176 359.766 387.624C359.766 386.184 361.014 385.48 362.598 385.48C364.118 385.48 365.158 386.168 365.51 386.984L364.534 387.576C364.31 387.096 363.494 386.616 362.55 386.616C361.638 386.616 361.158 386.984 361.158 387.56C361.158 388.328 362.278 388.504 362.934 388.696C363.574 388.888 365.558 389.336 365.558 390.92C365.558 392.408 364.486 393.208 362.646 393.208C360.934 393.208 359.83 392.424 359.462 391.464ZM374.46 393.144C372.236 393.144 370.684 391.512 370.684 389.32C370.684 387.096 372.236 385.496 374.46 385.496C376.668 385.496 378.204 387.096 378.204 389.32C378.204 391.512 376.668 393.144 374.46 393.144ZM374.46 391.768C375.852 391.768 376.78 390.712 376.78 389.32C376.78 387.912 375.852 386.888 374.46 386.888C373.052 386.888 372.124 387.912 372.124 389.32C372.124 390.712 373.052 391.768 374.46 391.768ZM383.909 385.528C385.333 385.528 386.821 386.344 386.821 388.472V393H385.381V388.68C385.381 387.32 384.421 386.76 383.493 386.76C382.581 386.76 381.637 387.32 381.637 388.68V393H380.197V385.64H381.637V386.536C382.197 385.816 383.061 385.528 383.909 385.528ZM396.123 393.144C393.899 393.144 392.347 391.512 392.347 389.32C392.347 387.096 393.899 385.496 396.123 385.496C398.331 385.496 399.867 387.096 399.867 389.32C399.867 391.512 398.331 393.144 396.123 393.144ZM396.123 391.768C397.515 391.768 398.443 390.712 398.443 389.32C398.443 387.912 397.515 386.888 396.123 386.888C394.715 386.888 393.787 387.912 393.787 389.32C393.787 390.712 394.715 391.768 396.123 391.768ZM407.044 385.64H408.484V393H407.044V392.12C406.484 392.84 405.62 393.128 404.772 393.128C403.348 393.128 401.86 392.296 401.86 390.168V385.64H403.3V389.96C403.3 391.32 404.26 391.88 405.188 391.88C406.1 391.88 407.044 391.32 407.044 389.96V385.64ZM412.167 387C412.743 385.992 413.735 385.544 414.759 385.528V386.888C413.767 386.904 412.167 387.336 412.167 389.224V393H410.727V385.64H412.167V387ZM419.719 390.744L420.935 389.912C421.287 390.744 422.567 391.688 424.215 391.688C425.815 391.688 426.439 391.08 426.439 390.072C426.439 388.872 424.535 388.568 423.655 388.296C422.711 388.024 420.103 387.56 420.103 385.384C420.103 383.336 421.863 382.408 424.055 382.408C426.007 382.408 427.575 383.416 427.975 384.536L426.759 385.288C426.471 384.6 425.335 383.912 423.895 383.912C422.535 383.912 421.799 384.424 421.799 385.304C421.799 386.44 423.559 386.712 424.519 386.984C425.383 387.256 428.103 387.832 428.103 390.008C428.103 392.088 426.551 393.192 424.055 393.192C421.767 393.192 420.231 392.056 419.719 390.744ZM433.727 385.528C435.151 385.528 436.639 386.344 436.639 388.472V393H435.199V388.68C435.199 387.32 434.239 386.76 433.311 386.76C432.399 386.76 431.455 387.32 431.455 388.68V393H430.015V382.6H431.455V386.536C432.015 385.816 432.879 385.528 433.727 385.528ZM442.418 393.144C440.194 393.144 438.642 391.512 438.642 389.32C438.642 387.096 440.194 385.496 442.418 385.496C444.626 385.496 446.162 387.096 446.162 389.32C446.162 391.512 444.626 393.144 442.418 393.144ZM442.418 391.768C443.81 391.768 444.738 390.712 444.738 389.32C444.738 387.912 443.81 386.888 442.418 386.888C441.01 386.888 440.082 387.912 440.082 389.32C440.082 390.712 441.01 391.768 442.418 391.768ZM452.123 385.528C454.203 385.528 455.691 387.144 455.691 389.336C455.691 391.544 454.203 393.128 452.123 393.128C450.987 393.128 450.139 392.648 449.595 391.88V395.944H448.155V385.64H449.595V386.792C450.139 386.008 450.987 385.528 452.123 385.528ZM451.931 391.768C453.355 391.768 454.283 390.744 454.283 389.336C454.283 387.912 453.355 386.888 451.931 386.888C450.523 386.888 449.595 387.912 449.595 389.336C449.595 390.744 450.523 391.768 451.931 391.768ZM465.185 385.528C467.265 385.528 468.753 387.144 468.753 389.336C468.753 391.544 467.265 393.128 465.185 393.128C464.049 393.128 463.201 392.648 462.657 391.88V395.944H461.217V385.64H462.657V386.792C463.201 386.008 464.049 385.528 465.185 385.528ZM464.993 391.768C466.417 391.768 467.345 390.744 467.345 389.336C467.345 387.912 466.417 386.888 464.993 386.888C463.585 386.888 462.657 387.912 462.657 389.336C462.657 390.744 463.585 391.768 464.993 391.768ZM476.612 385.64H478.052V393H476.612V391.864C476.068 392.648 475.22 393.128 474.084 393.128C472.004 393.128 470.516 391.512 470.516 389.32C470.516 387.096 472.004 385.528 474.084 385.528C475.22 385.528 476.068 386.008 476.612 386.776V385.64ZM474.276 391.768C475.684 391.768 476.612 390.728 476.612 389.32C476.612 387.896 475.684 386.888 474.276 386.888C472.852 386.888 471.924 387.896 471.924 389.32C471.924 390.728 472.852 391.768 474.276 391.768ZM486.15 385.64H487.59V392.456C487.59 394.584 486.118 396.072 483.702 396.072C482.406 396.072 481.302 395.56 480.63 394.76L481.574 393.96C482.166 394.6 482.95 394.84 483.702 394.84C484.838 394.84 486.15 394.168 486.15 392.456V391.864C485.606 392.632 484.742 393.128 483.606 393.128C481.542 393.128 480.054 391.512 480.054 389.32C480.054 387.128 481.542 385.528 483.606 385.528C484.742 385.528 485.606 386.008 486.15 386.792V385.64ZM483.798 391.768C485.222 391.768 486.15 390.728 486.15 389.32C486.15 387.896 485.222 386.888 483.798 386.888C482.39 386.888 481.462 387.896 481.462 389.32C481.462 390.728 482.39 391.768 483.798 391.768ZM493.241 385.512C495.385 385.512 496.777 387.128 496.777 389.32V389.736H490.985C491.129 391.048 492.057 391.896 493.337 391.896C494.393 391.896 495.065 391.416 495.417 390.904L496.425 391.624C495.785 392.552 494.681 393.144 493.337 393.144C491.097 393.144 489.593 391.512 489.593 389.32C489.593 387.128 491.033 385.512 493.241 385.512ZM493.241 386.664C491.977 386.664 491.161 387.512 490.985 388.792H495.433C495.257 387.56 494.473 386.664 493.241 386.664ZM499.274 393.064C498.81 393.064 498.458 392.712 498.458 392.248C498.458 391.768 498.81 391.432 499.274 391.432C499.754 391.432 500.09 391.768 500.09 392.248C500.09 392.712 499.754 393.064 499.274 393.064Z" fill="#807D7E"/>
<defs>
<filter id="filter0_dd_5_2737" x="0" y="0" width="705" height="569" filterUnits="userSpaceOnUse" color-interpolation-filters="sRGB">
<feFlood flood-opacity="0" result="BackgroundImageFix"/>
<feColorMatrix in="SourceAlpha" type="matrix" values="0 0 0 0 0 0 0 0 0 0 0 0 0 0 0 0 0 0 127 0" result="hardAlpha"/>
<feOffset dx="2" dy="2"/>
<feGaussianBlur stdDeviation="2"/>
<feComposite in2="hardAlpha" operator="out"/>
<feColorMatrix type="matrix" values="0 0 0 0 0 0 0 0 0 0 0 0 0 0 0 0 0 0 0.05 0"/>
<feBlend mode="normal" in2="BackgroundImageFix" result="effect1_dropShadow_5_2737"/>
<feColorMatrix in="SourceAlpha" type="matrix" values="0 0 0 0 0 0 0 0 0 0 0 0 0 0 0 0 0 0 127 0" result="hardAlpha"/>
<feOffset dx="-2" dy="-2"/>
<feGaussianBlur stdDeviation="2"/>
<feComposite in2="hardAlpha" operator="out"/>
<feColorMatrix type="matrix" values="0 0 0 0 0 0 0 0 0 0 0 0 0 0 0 0 0 0 0.05 0"/>
<feBlend mode="normal" in2="effect1_dropShadow_5_2737" result="effect2_dropShadow_5_2737"/>
<feBlend mode="normal" in="SourceGraphic" in2="effect2_dropShadow_5_2737" result="shape"/>
</filter>
</defs>
</svg>
