<svg width="170" height="170" viewBox="0 0 170 170" fill="none" xmlns="http://www.w3.org/2000/svg">
<circle cx="85" cy="85" r="85" fill="#F0F9F4"/>
<path fill-rule="evenodd" clip-rule="evenodd" d="M85.4787 63.4602C79.2557 56.208 68.8785 54.2572 61.0815 60.898C53.2845 67.5389 52.1868 78.642 58.3098 86.4961C63.4007 93.0263 78.8074 106.799 83.8569 111.257C84.4218 111.755 84.7043 112.005 85.0338 112.103C85.3214 112.188 85.636 112.188 85.9236 112.103C86.2531 112.005 86.5355 111.755 87.1005 111.257C92.15 106.799 107.557 93.0263 112.648 86.4961C118.771 78.642 117.807 67.469 109.876 60.898C101.945 54.327 91.7017 56.208 85.4787 63.4602Z" stroke="#28A642" stroke-width="6.225" stroke-linecap="round" stroke-linejoin="round"/>
</svg>
